HIERARCHY
ROOT Hips
{
  OFFSET -7.9889 92.829 659.009
  CHANNELS 6 Xposition Yposition Zposition Zrotation Xrotation Yrotation
  JOINT Spine
  {
    OFFSET 0 4.73261 7.09891
    CHANNELS 3 Zrotation Xrotation Yrotation
    JOINT Spine1
    {
      OFFSET 0 0 9.46522
      CHANNELS 3 Zrotation Xrotation Yrotation
      JOINT Spine2
      {
        OFFSET 0 0 9.46522
        CHANNELS 3 Zrotation Xrotation Yrotation
        JOINT Spine3
        {
          OFFSET 0 0 9.46522
          CHANNELS 3 Zrotation Xrotation Yrotation
          JOINT Neck
          {
            OFFSET 0 -3.54946 24.8462
            CHANNELS 3 Zrotation Xrotation Yrotation
            JOINT Head
            {
              OFFSET 0 0 13.0147
              CHANNELS 3 Zrotation Xrotation Yrotation
              End Site
              {
                OFFSET 0 0 15.3218
              }
            }
          }
          JOINT RightShoulder
          {
            OFFSET -3.19949 -5.33248 17.2773
            CHANNELS 3 Zrotation Xrotation Yrotation
            JOINT RightArm
            {
              OFFSET 15.8908 0 0
              CHANNELS 3 Zrotation Xrotation Yrotation
              JOINT RightForeArm
              {
                OFFSET 29.5436 0 0
                CHANNELS 3 Zrotation Xrotation Yrotation
                JOINT RightHand
                {
                  OFFSET 23.2652 0 0
                  CHANNELS 3 Zrotation Xrotation Yrotation
                  JOINT RightHandEnd
                  {
                    OFFSET 6.96115 0 0
                    CHANNELS 3 Zrotation Xrotation Yrotation
                    End Site
                    {
                      OFFSET 6.96115 0 0
                    }
                  }
                  JOINT RightHandThumb1
                  {
                    OFFSET 2.78446 -4.64077 1.85631
                    CHANNELS 3 Zrotation Xrotation Yrotation
                    JOINT RightHandThumb2
                    {
                      OFFSET 6.96115 0 0
                      CHANNELS 3 Zrotation Xrotation Yrotation
                      End Site
                      {
                        OFFSET 0 0 0
                      }
                    }
                  }
                }
              }
            }
          }
          JOINT LeftShoulder
          {
            OFFSET 3.19949 -5.33248 17.2773
            CHANNELS 3 Zrotation Xrotation Yrotation
            JOINT LeftArm
            {
              OFFSET 15.8908 0 0
              CHANNELS 3 Zrotation Xrotation Yrotation
              JOINT LeftForeArm
              {
                OFFSET 29.5436 0 0
                CHANNELS 3 Zrotation Xrotation Yrotation
                JOINT LeftHand
                {
                  OFFSET 23.2652 0 0
                  CHANNELS 3 Zrotation Xrotation Yrotation
                  JOINT LeftHandEnd
                  {
                    OFFSET 6.96115 0 0
                    CHANNELS 3 Zrotation Xrotation Yrotation
                    End Site
                    {
                      OFFSET 6.96115 0 0
                    }
                  }
                  JOINT LeftHandThumb1
                  {
                    OFFSET 2.78446 -4.64077 -1.85631
                    CHANNELS 3 Zrotation Xrotation Yrotation
                    JOINT LeftHandThumb2
                    {
                      OFFSET 6.96115 0 0
                      CHANNELS 3 Zrotation Xrotation Yrotation
                      End Site
                      {
                        OFFSET 0 0 0
                      }
                    }
                  }
                }
              }
            }
          }
        }
      }
    }
  }
  JOINT RightUpLeg
  {
    OFFSET -9.49182 0 -2.77289
    CHANNELS 3 Zrotation Xrotation Yrotation
    JOINT RightLeg
    {
      OFFSET 41.2118 0 0
      CHANNELS 3 Zrotation Xrotation Yrotation
      JOINT RightFoot
      {
        OFFSET 45.6091 0 0
        CHANNELS 3 Zrotation Xrotation Yrotation
        JOINT RightToeBase
        {
          OFFSET 17.0969 0 0
          CHANNELS 3 Zrotation Xrotation Yrotation
          End Site
          {
            OFFSET 7.67878 0 0
          }
        }
      }
    }
  }
  JOINT LeftUpLeg
  {
    OFFSET 9.49182 0 -2.77289
    CHANNELS 3 Zrotation Xrotation Yrotation
    JOINT LeftLeg
    {
      OFFSET 41.2118 0 0
      CHANNELS 3 Zrotation Xrotation Yrotation
      JOINT LeftFoot
      {
        OFFSET 45.6091 0 0
        CHANNELS 3 Zrotation Xrotation Yrotation
        JOINT LeftToeBase
        {
          OFFSET 17.0969 0 0
          CHANNELS 3 Zrotation Xrotation Yrotation
          End Site
          {
            OFFSET 7.67878 0 0
          }
        }
      }
    }
  }
}
MOTION
Frames:	4
Frame Time:	0.00833333
0.0595508 91.4733 0.0471393 -77.1895 -86.2081 -75.011 -0.795973 -8.91677 -1.99826 0.133515 5.86327 -0.439403 5.58847 11.5898 -0.0891662 0.929445 0.728372 0.117426 1.49186 6.46772 2.90596 -4.63811 -18.6219 -0.693826 4.28885 5.06214 177.125 -22.1981 -0.750479 -63.3702 -36.6326 5.37514e-13 4.55424e-11 0.799592 2.71884 1.40071 5.97139e-09 -90 5.97139e-09 165 10 -180 3.7874e-11 -2.21119e-09 -2.04364e-09 -1.18355 2.67249 5.39037 -17.1904 10.9611 70.8009 -31.6465 -5.24792e-13 3.9198e-11 0.940501 -11.9035 7.65493 -2.68713e-08 90 2.68713e-08 165 10 -180 -1.96886e-10 -5.43421e-09 -2.77535e-09 -11.4855 10.8085 89.2894 11.1681 0.00803685 -2.90226e-13 -90.0927 1.86639 -1.08177 -22.3225 1.68651e-10 5.57806e-11 16.0705 -26.3358 89.5012 4.33673 -0.00398472 -3.54632e-13 -73.9696 -2.83651 4.9286 -21.9901 -5.33868e-11 -3.62925e-11 
0.0595508 91.4733 0.0471393 -77.7834 -86.034 -75.6935 -0.795083 -8.92475 -1.89241 0.134082 5.84582 -0.419095 5.60041 11.6321 -0.0415134 0.920402 0.724515 0.125633 1.548 6.37025 2.94077 -4.58505 -18.5736 -0.715232 4.27717 5.07339 177.072 -22.2447 -0.829845 -63.4258 -36.5298 3.49861e-13 3.081e-11 0.792275 2.73575 1.39692 3.18055e-15 -90 -0 165 10 -180 1.53557e-11 -1.45142e-09 -1.36539e-09 -1.15423 2.673 5.48735 -17.2171 11.0682 70.7049 -31.4436 -1.39944e-13 2.9925e-11 0.968082 -11.9336 7.69787 1.34356e-08 90 -1.34356e-08 165 10 -180 -1.68407e-10 -3.85589e-09 -2.05198e-09 -11.5393 10.9058 89.6001 11.625 0.00843822 2.39308e-06 -90.309 1.99887 -1.3 -22.4838 9.91013e-11 4.13758e-11 15.0707 -25.8425 89.1587 3.11468 -0.00367769 -5.10871e-06 -73.9433 -3.62574 4.17834 -21.9603 -3.23299e-11 -2.2438e-11 
0.179964 91.3506 0.891593 -78.31 -85.8571 -76.3113 -0.796268 -8.93405 -1.78398 0.134504 5.82677 -0.398443 5.61576 11.6775 0.003787 0.911755 0.720427 0.133625 1.60794 6.26939 2.97922 -4.53237 -18.5138 -0.737816 4.26873 5.0816 177.014 -22.299 -0.90956 -63.4707 -36.432 9.22361e-14 1.53303e-11 0.783785 2.75655 1.39574 5.97139e-09 -90 5.97139e-09 165 10 -180 -8.22809e-12 -6.5855e-10 -6.55366e-10 -1.12046 2.67019 5.59388 -17.2426 11.1818 70.6013 -31.2496 2.25819e-13 2.02395e-11 0.99738 -11.9613 7.73818 -1.34356e-08 90 1.34356e-08 165 10 -180 -1.40059e-10 -2.17717e-09 -1.28892e-09 -11.5986 11.0072 89.9087 12.0555 0.00883004 -2.96979e-07 -90.5331 2.12727 -1.5158 -22.6237 2.54019e-11 2.4573e-11 14.0116 -25.3082 88.7972 1.75441 -0.00330456 -2.11343e-06 -73.925 -4.4641 3.40387 -21.9307 -7.72954e-12 -7.25007e-12 
0.303596 91.228 1.75502 -78.8165 -85.6845 -76.9037 -0.793257 -8.94071 -1.6807 0.135233 5.81092 -0.378481 5.62419 11.7166 0.053787 0.902316 0.716796 0.142044 1.66043 6.17542 3.01067 -4.47891 -18.4768 -0.758168 4.25385 5.09594 176.964 -22.338 -0.988441 -63.537 -36.3242 -1.46306e-13 1.36605e-12 0.777644 2.76957 1.38934 3.18055e-15 -90 -0 165 10 -180 -2.96905e-11 6.81561e-11 -8.91191e-12 -1.0956 2.67417 5.68132 -17.2699 11.2826 70.5128 -31.0378 5.21611e-13 1.13721e-11 1.02332 -11.9937 7.78379 2.38856e-08 90 -2.38856e-08 165 10 -180 -1.11447e-10 -6.99266e-10 -6.05249e-10 -11.6486 11.0997 90.2221 12.5389 0.00924094 -2.42335e-06 -90.7401 2.2663 -1.73502 -22.8065 -3.9866e-11 1.19525e-11 13.0926 -24.84 88.5065 0.670091 -0.00306352 4.32579e-06 -73.9219 -5.20524 2.67611 -21.9008 9.83189e-12 5.20021e-12 
